<svg width="256" height="256" viewBox="0 0 256 256" xmlns="http://www.w3.org/2000/svg">
  <rect width="256" height="256" rx="60" fill="#F34F29"/>
  <path d="M219.8 119.2L136.8 36.2c-6.2-6.2-16.2-6.2-22.4 0l-20.1 20.1 27.2 27.2c5.2-1.7 11.1-0.5 15.2 3.6 4.2 4.2 5.4 10.2 3.5 15.4l26.3 26.3c5.2-1.9 11.2-0.7 15.4 3.5 6.2 6.2 6.2 16.2 0 22.4-6.2 6.2-16.2 6.2-22.4 0-4.6-4.6-5.8-11.4-3.5-17l-24.5-24.5v65.2c1.3 0.6 2.6 1.4 3.7 2.5 6.2 6.2 6.2 16.2 0 22.4-6.2 6.2-16.2 6.2-22.4 0-6.2-6.2-6.2-16.2 0-22.4 1.5-1.5 3.2-2.7 5.1-3.5V85.7c-1.9-0.8-3.6-2-5.1-3.5-4.3-4.3-5.5-10.6-3.6-16l-27-27-60.6 60.6c-6.2 6.2-6.2 16.2 0 22.4l83 83c6.2 6.2 16.2 6.2 22.4 0l83-83c6.2-6.2 6.2-16.2 0-22.4z" fill="#fff"/>
</svg>