<svg xmlns="http://www.w3.org/2000/svg" width="900" height="500" viewBox="0 0 900 500">
  <style>
    .title { font: bold 24px sans-serif; fill: #2a2a2a; }
    .command { font: bold 16px monospace; fill: #f34f29; }
    .description { font: 14px sans-serif; fill: #666; }
    .box { fill: #f0f0f0; stroke: #ddd; stroke-width: 2; rx: 10; }
    .arrow { stroke: #666; stroke-width: 2; fill: none; marker-end: url(#arrowhead); }
    .arrow-push { stroke: #28a745; stroke-width: 2; fill: none; marker-end: url(#arrowhead-green); }
    .arrow-pull { stroke: #0366d6; stroke-width: 2; fill: none; marker-end: url(#arrowhead-blue); }
    .github-icon { fill: #24292e; }
    .local-icon { fill: #f34f29; }
    .user-info { font: italic 12px sans-serif; fill: #888; }
  </style>

  <!-- Arrow markers -->
  <defs>
    <marker id="arrowhead" markerWidth="10" markerHeight="7" refX="9" refY="3.5" orient="auto">
      <polygon points="0 0, 10 3.5, 0 7" fill="#666"/>
    </marker>
    <marker id="arrowhead-green" markerWidth="10" markerHeight="7" refX="9" refY="3.5" orient="auto">
      <polygon points="0 0, 10 3.5, 0 7" fill="#28a745"/>
    </marker>
    <marker id="arrowhead-blue" markerWidth="10" markerHeight="7" refX="9" refY="3.5" orient="auto">
      <polygon points="0 0, 10 3.5, 0 7" fill="#0366d6"/>
    </marker>
  </defs>

  <!-- Titre -->
  <text class="title" x="50" y="40">Travailler avec un dépôt distant</text>

  <!-- Local Repository -->
  <g transform="translate(50,100)">
    <rect class="box" width="300" height="250"/>
    <text class="title" x="20" y="40">Dépôt Local</text>
    
    <!-- Local repo icon -->
    <g transform="translate(130,100)">
      <circle class="local-icon" r="40"/>
      <text fill="white" text-anchor="middle" y="7">Local</text>
    </g>
    
    <!-- Commands -->
    <text class="command" x="20" y="180">git remote -v</text>
    <text class="command" x="20" y="210">git remote add origin</text>
  </g>

  <!-- Remote Repository (GitHub) -->
  <g transform="translate(550,100)">
    <rect class="box" width="300" height="250"/>
    <text class="title" x="20" y="40">GitHub (Remote)</text>
    
    <!-- GitHub icon -->
    <g transform="translate(130,100)">
      <path class="github-icon" d="M50,0 C22.4,0 0,22.4 0,50 C0,72.1 14.3,90.9 34.2,97.5 C36.7,97.9 37.6,96.4 37.6,95 C37.6,93.8 37.5,90.7 37.5,86.5 C23.6,89.5 20.7,79.9 20.7,79.9 C18.4,74.1 15.1,72.6 15.1,72.6 C10.6,69.5 15.5,69.6 15.5,69.6 C20.5,70 23.1,74.8 23.1,74.8 C27.6,82.4 34.8,80.2 37.8,78.9 C38.2,75.7 39.5,73.5 41,72.1 C29.9,70.7 18.1,66.4 18.1,47.3 C18.1,41.9 20,37.5 23.2,34.1 C22.7,32.8 21,27.7 23.7,20.8 C23.7,20.8 27.9,19.5 37.5,25.9 C41.5,24.8 45.7,24.3 50,24.3 C54.3,24.3 58.5,24.8 62.5,25.9 C72.1,19.5 76.3,20.8 76.3,20.8 C79,27.7 77.3,32.8 76.8,34.1 C80,37.5 81.9,41.9 81.9,47.3 C81.9,66.5 70.1,70.7 58.9,72 C60.8,73.7 62.5,77 62.5,82 C62.5,89.2 62.4,93.2 62.4,95 C62.4,96.4 63.3,98 65.8,97.5 C85.7,90.9 100,72.1 100,50 C100,22.4 77.6,0 50,0z" transform="scale(0.8)"/>
    </g>
  </g>

  <!-- Arrows and operations -->
  <g transform="translate(360,150)">
    <!-- Push arrow -->
    <path class="arrow-push" d="M0,0 C60,0 120,0 180,0"/>
    <text class="command" x="40" y="-10">git push</text>
    
    <!-- Pull arrow -->
    <path class="arrow-pull" d="M180,100 C120,100 60,100 0,100"/>
    <text class="command" x="40" y="90">git pull</text>
    
    <!-- Fetch arrow -->
    <path class="arrow" d="M180,50 C120,50 60,50 0,50"/>
    <text class="command" x="40" y="40">git fetch</text>
  </g>

  <!-- Command explanations -->
  <g transform="translate(50,400)">
    <rect class="box" width="800" height="60"/>
    <text class="description" x="20" y="25">git remote add origin [url] : Connecte le dépôt local au dépôt distant</text>
    <text class="description" x="20" y="45">git push/pull origin branche : Synchronise les changements entre local et distant</text>
  </g>

  <!-- User Info -->
  <text class="user-info" x="50" y="485">Created by @fannysaez - 2025-05-18 05:58:43 UTC</text>
</svg>